<svg width="21" height="21" viewBox="0 0 21 21" fill="none" xmlns="http://www.w3.org/2000/svg">
<path fill-rule="evenodd" clip-rule="evenodd" d="M9.48106 2.97502C9.85958 2.74593 10.2936 2.62482 10.736 2.62482C11.1785 2.62482 11.6125 2.74593 11.991 2.97502L12.8822 3.52014C14.1326 4.28445 15.5566 4.45464 16.9872 4.62614C17.4497 4.6817 17.9126 4.73683 18.3706 4.81252C18.3706 4.81252 18.3807 5.61489 18.3702 5.97889L18.2787 9.10745C18.2 11.7906 17.0069 14.3347 14.9603 16.1836C13.9947 17.0555 12.9959 17.8435 11.8484 18.498C11.5101 18.6891 11.131 18.7963 10.7427 18.8105C10.3545 18.8248 9.96845 18.7456 9.61712 18.5798C8.29194 17.9498 7.11856 17.1509 6.04712 16.1836C4.0005 14.3347 2.80744 11.7906 2.72912 9.10745L2.63812 5.98895C2.62719 5.6197 2.63812 4.81252 2.63812 4.81252C3.01 4.76877 3.38887 4.73245 3.77081 4.69614C5.4565 4.53602 7.19819 4.37064 8.62706 3.49739L9.48106 2.97502ZM9.625 9.62502V6.56252H11.375V9.62502H14.4375V11.375H11.375V14.4375H9.625V11.375H6.5625V9.62502H9.625Z" fill="#227354"/>
</svg>
