<svg width="45" height="31" viewBox="0 0 45 31" fill="none" xmlns="http://www.w3.org/2000/svg">
<path d="M42.0021 12.1114C41.8994 13.32 41.4585 14.2659 41.0173 14.2244C40.5762 14.1826 40.3023 13.1695 40.4051 11.9607C40.5079 10.7521 40.949 9.80618 41.3898 9.84765C41.831 9.8895 42.1049 10.9029 42.0021 12.1114ZM41.5584 8.97153C40.904 8.90985 40.2545 10.2518 40.1082 11.9691C39.9621 13.6859 40.3744 15.1279 41.0291 15.1896C41.6838 15.2514 42.3331 13.9096 42.4793 12.1924C42.6255 10.4756 42.2134 9.03334 41.5584 8.97153Z" fill="#227354"/>
<path d="M10.6151 16.3977C7.49906 16.3977 4.97281 13.482 4.97281 9.88539C4.97281 6.28878 7.49906 3.37304 10.6151 3.37304C13.7315 3.37304 16.2578 6.28878 16.2578 9.88539C16.2578 13.482 13.7315 16.3977 10.6151 16.3977ZM10.6151 3.1001C7.36854 3.1001 4.73648 6.138 4.73648 9.88539C4.73648 13.6328 7.36854 16.6706 10.6151 16.6706C13.8617 16.6706 16.4941 13.6328 16.4941 9.88539C16.4941 6.138 13.8617 3.1001 10.6151 3.1001Z" fill="#227354"/>
<path d="M10.7155 16.0705C7.57244 15.5431 5.47791 12.3718 6.0375 8.98693C6.58529 5.67185 9.47555 3.38842 12.547 3.79001C12.4833 3.77686 12.4219 3.75821 12.3575 3.74764C9.21436 3.22032 6.20822 5.56542 5.64257 8.98495C5.07767 12.4045 7.1673 15.6042 10.3108 16.1312C10.9496 16.2382 11.5817 16.2212 12.1903 16.1061C11.7078 16.1587 11.2139 16.1542 10.7155 16.0705Z" fill="#227354"/>
<path d="M26.613 19.558C23.6482 19.558 21.2407 15.7987 21.2407 11.1606C21.2407 6.52565 23.6482 2.76633 26.613 2.76633C27.2471 2.76633 27.8539 2.94346 28.4186 3.25843C27.767 2.8087 27.0499 2.55469 26.2945 2.55469C23.3297 2.55469 20.9222 6.40183 20.9222 11.1452C20.9222 15.8921 23.3297 19.7393 26.2945 19.7393C26.9611 19.7393 27.5992 19.5445 28.188 19.1898C27.69 19.4281 27.1614 19.558 26.613 19.558Z" fill="#227354"/>
<path d="M32.1454 11.2858C32.2097 10.4721 32.3983 9.76416 32.6381 9.32471C32.233 9.47482 31.8636 10.2027 31.768 11.1004C31.6744 11.9797 31.8738 12.7357 32.2263 12.9627C32.1298 12.5067 32.0954 11.9206 32.1454 11.2858Z" fill="#227354"/>
<path d="M39.7805 11.8307C39.9158 10.3083 40.4122 9.04739 40.9935 8.58681C40.9935 8.58681 37.7026 7.04465 37.5204 7.02793C36.5065 6.93653 35.5005 8.92621 35.2741 11.4721C35.0477 14.0179 35.6862 16.1561 36.7004 16.2478C36.772 16.2541 40.418 15.2582 40.418 15.2582C39.9174 14.7123 39.6432 13.3699 39.7805 11.8307Z" fill="#227354"/>
<path d="M32.3308 11.1799C32.2353 12.2704 32.3627 13.2712 32.6461 14.0282C32.6811 14.118 32.7161 14.2047 32.7543 14.288C33.0536 14.9328 33.4772 15.3497 33.9804 15.4203L36.7127 16.0779L36.6999 16.2479L33.8721 15.5807C33.4899 15.5261 33.1492 15.2792 32.8754 14.891C32.8404 14.8429 32.8085 14.7916 32.7766 14.7403C32.697 14.6088 32.6206 14.4644 32.5538 14.3073C32.506 14.1918 32.4614 14.0731 32.42 13.9448C32.1684 13.1846 32.0633 12.2127 32.1557 11.1638C32.2318 10.2946 32.4327 9.48946 32.7161 8.82235C32.7607 8.72292 32.8053 8.62344 32.8499 8.53044C32.9072 8.41174 32.9709 8.29629 33.0314 8.19047C33.0569 8.14871 33.0824 8.10705 33.1076 8.06854C33.5695 7.33722 34.1492 6.90096 34.7415 6.92661L37.5343 7.02609L37.5247 7.21214L34.8147 7.11266C34.2479 7.08701 33.6938 7.50396 33.2511 8.2001L33.2129 8.25782C33.1492 8.36365 33.0855 8.47914 33.025 8.60098C32.99 8.66834 32.9581 8.73889 32.9263 8.80944H32.9231C32.6238 9.47345 32.4104 10.2914 32.3308 11.1799Z" fill="#227354"/>
<path d="M33.0248 8.60098C32.9902 8.66833 32.958 8.73888 32.9262 8.80943H32.9233C32.9166 8.80628 32.9106 8.80628 32.9039 8.80628C32.8402 8.80628 32.7768 8.81272 32.716 8.82235C31.8756 8.96983 31.2224 10.0796 31.2224 11.4301C31.2224 12.6168 31.7256 13.6208 32.4201 13.9448C32.4931 13.9801 32.5666 14.0057 32.6463 14.0282C32.6809 14.118 32.716 14.2047 32.7542 14.288C32.6905 14.3008 32.6269 14.3073 32.5631 14.3073H32.5539C31.6301 14.2977 30.8849 12.9986 30.8849 11.398C30.8849 9.79096 31.6368 8.48877 32.5631 8.48877C32.6619 8.48877 32.7574 8.50159 32.8497 8.53043C32.9106 8.54969 32.9675 8.57214 33.0248 8.60098Z" fill="#227354"/>
<path d="M33.251 8.19994C33.2064 8.14855 33.1586 8.10689 33.1077 8.06838C32.8465 7.85668 32.5568 7.73804 32.2542 7.73804C31.1173 7.73804 30.1971 9.37709 30.1971 11.4011C30.1971 13.4218 31.1173 15.0609 32.2542 15.0609C32.4708 15.0609 32.6809 15.0032 32.8752 14.8909C32.8784 14.8909 32.8816 14.8909 32.8851 14.8877L32.7892 14.7401H32.7768C32.7415 14.7433 32.7065 14.7466 32.6717 14.7466C31.5317 14.7466 30.6111 13.2679 30.6111 11.4427C30.6111 9.61762 31.5317 8.13892 32.6717 8.13892C32.7928 8.13892 32.9135 8.15503 33.0316 8.19031C33.0917 8.20947 33.1523 8.23192 33.2128 8.25766L33.251 8.19994Z" fill="#227354"/>
<path d="M9.51418 2.93229L9.65907 2.64808L9.23588 2.17627L8.96933 2.5718L9.51418 2.93229Z" fill="#227354"/>
<path d="M10.3489 2.7535L10.4502 2.60306L10.1486 2.16943L9.94449 2.40391L10.3489 2.7535Z" fill="#227354"/>
<path d="M11.9949 2.66432L11.9412 2.52515L11.9118 2.54506L11.9949 2.66432Z" fill="#227354"/>
<path d="M11.1979 2.68928L11.2418 2.63888L11.0553 2.28638L10.9336 2.39478L11.1979 2.68928Z" fill="#227354"/>
<path d="M8.8089 16.8558L8.21113 17.1585L8.03602 16.4695L7.4077 16.6889L7.31374 15.9817L6.66471 16.1142L6.65324 15.3998L5.9941 15.4434L6.06605 14.7332L5.40653 14.687L5.56009 13.9923L4.91139 13.857L5.14385 13.1886L4.51618 12.9665L4.8241 12.335L4.22669 12.0296L4.60595 11.4449L4.0487 11.0609L4.49226 10.5323L3.98406 10.0756L4.48559 9.61171L4.03373 9.08988L4.58525 8.69731L4.19773 8.11864L4.79033 7.80399L4.47249 7.17723L5.09736 6.94567L4.85436 6.281L5.50115 6.13572L5.33747 5.44315L5.99573 5.38703L5.91347 4.67821L6.57336 4.7116L6.57373 3.99719L7.22458 4.11974L7.30805 3.41082L7.93987 3.62097L8.10453 2.92938L8.70697 3.22327L8.91774 2.64869L8.8471 2.75362L8.3312 2.30713L8.01243 2.9323L7.44878 2.55926L7.20518 3.22327L6.60269 2.92938L6.43803 3.62097L5.80626 3.41082L5.72312 4.11974L5.07218 3.99719L5.07153 4.7116L4.41168 4.67821L4.49389 5.38703L3.83568 5.44315L3.99894 6.13572L3.35252 6.281L3.5952 6.94567L2.9707 7.17723L3.28817 7.80399L2.6959 8.11864L3.08346 8.69731L2.53189 9.08988L2.98343 9.61171L2.4819 10.0756L2.99047 10.5323L2.54654 11.0609L3.10412 11.4449L2.72514 12.0296L3.32231 12.335L3.0144 12.9665L3.64202 13.1886L3.4096 13.857L4.05826 13.9923L3.90507 14.687L4.56393 14.7332L4.49226 15.4434L5.15178 15.3998L5.16288 16.1142L5.81195 15.9817L5.90591 16.6889L6.53419 16.4695L6.70929 17.1585L7.30707 16.8558L7.56093 17.5159L8.11879 17.1341L8.44681 17.7545L8.95603 17.3003L9.00919 17.3767L8.8089 16.8558Z" fill="#227354"/>
<path d="M12.0345 17.469L12.0536 17.4815L12.086 17.3923L12.0345 17.469Z" fill="#227354"/>
<path d="M11.3076 17.3516L11.0593 17.637L11.1711 17.7339L11.3447 17.3927L11.3076 17.3516Z" fill="#227354"/>
<path d="M9.62057 17.134L9.09186 17.4956L9.35337 17.8714L9.76196 17.4019L9.62057 17.134Z" fill="#227354"/>
<path d="M10.458 17.3003L10.0702 17.6461L10.266 17.8644L10.5536 17.4379L10.458 17.3003Z" fill="#227354"/>
<path d="M25.4452 18.8047L25.1261 18.6803L25.116 18.4112L25.4289 18.3695L25.6325 18.6126L25.4452 18.8047ZM23.7424 17.2215L23.4618 16.9271L23.5848 16.6332L23.9415 16.7465L24.0386 17.1098L23.7424 17.2215ZM22.7362 14.9191L22.4231 14.5904L22.5601 14.2622L22.9584 14.3886L23.067 14.7946L22.7362 14.9191ZM21.9254 11.5931L22.1731 11.3395L22.497 11.6044L22.4496 12.0221L22.0961 12.0153L21.9254 11.5931ZM22.3177 8.55332L22.6712 8.55078L22.7135 8.96904L22.3865 9.23015L22.1419 8.9736L22.3177 8.55332ZM23.2654 5.68582L23.6189 5.6829L23.6612 6.1015L23.3342 6.36265L23.0896 6.10568L23.2654 5.68582ZM25.0108 3.67594L25.364 3.6734L25.4066 4.09162L25.0796 4.35305L24.8348 4.09608L25.0108 3.67594ZM27.1604 2.96585L27.4779 2.96317L27.5158 3.33944L27.2218 3.57429L27.0022 3.34334L27.1604 2.96585ZM28.8157 3.478L29.0488 3.47645L29.0768 3.75297L28.8609 3.92553L28.6995 3.75588L28.8157 3.478ZM27.4649 18.7692C24.8694 18.7692 22.7645 15.3913 22.7645 11.2215C22.7645 7.05508 24.8694 3.67758 27.4649 3.67758C29.3628 3.67758 30.9997 5.48657 31.7417 8.08799C31.8372 8.03951 31.9359 7.99499 32.0154 7.95934C31.2129 4.91213 29.2927 2.7666 27.0508 2.7666C24.0861 2.7666 21.6786 6.52582 21.6786 11.1605C21.6786 15.7986 24.0861 19.5582 27.0508 19.5582C29.1972 19.5582 31.0506 17.592 31.9104 14.7468L31.6588 14.6346C30.8819 17.0881 29.2959 18.7692 27.4649 18.7692Z" fill="#227354"/>
<path d="M30.0938 8.80944H30.0904C30.0843 8.80629 30.0779 8.80629 30.0715 8.80629C30.0075 8.80629 29.9438 8.81264 29.8836 8.82226C29.043 8.96984 28.3898 10.0796 28.3898 11.4301C28.3898 12.6169 28.8929 13.6207 29.5875 13.9448C29.6608 13.9801 29.734 14.0057 29.8136 14.0282C29.8483 14.118 29.8836 14.2046 29.9218 14.2879C29.8582 14.3008 29.7944 14.3072 29.7305 14.3072H29.7212C28.7977 14.2976 28.0525 12.9986 28.0525 11.3979C28.0525 9.79097 28.8041 8.48869 29.7305 8.48869C29.8295 8.48869 29.9251 8.50151 30.0174 8.53039C30.0779 8.5496 30.1352 8.57206 30.1925 8.60099C30.1575 8.66834 30.1257 8.73889 30.0938 8.80944ZM28.1605 14.1712L28.4735 14.1296L28.677 14.3727L28.4898 14.5648L28.1704 14.4404L28.1605 14.1712ZM27.4905 12.3522L27.3965 12.656L27.1351 12.6005L27.0676 12.2624L27.2873 12.1091L27.4905 12.3522ZM27.4427 10.2551L27.2812 10.0854L27.3975 9.80797L27.6312 9.80604L27.659 10.0826L27.4427 10.2551ZM28.8166 8.68117L28.6007 8.85373L28.4392 8.6837L28.5554 8.40621L28.7885 8.40466L28.8166 8.68117ZM29.0875 14.8909C28.8929 15.0032 28.6828 15.061 28.4665 15.061C27.3294 15.061 26.4093 13.4219 26.4093 11.4011C26.4093 9.37716 27.3294 7.73811 28.4665 7.73811C28.7691 7.73811 29.0589 7.85675 29.3196 8.06854C29.3706 8.10696 29.4188 8.14872 29.4633 8.20001L29.4248 8.25773C29.3646 8.23209 29.3041 8.20964 29.2435 8.19038C29.1257 8.15506 29.0047 8.13909 28.8837 8.13909C27.7436 8.13909 26.823 9.61774 26.823 11.4428C26.823 13.2679 27.7436 14.7466 28.8837 14.7466C28.9187 14.7466 28.9538 14.7435 28.9885 14.7402H29.0013L29.0971 14.8878C29.0936 14.8909 29.0907 14.8909 29.0875 14.8909ZM26.48 15.5489L26.1609 15.4244L26.1511 15.1553L26.4641 15.1136L26.6676 15.3567L26.48 15.5489ZM29.3907 6.40699L29.6241 6.40506L29.6521 6.68157L29.4359 6.85405L29.2744 6.68439L29.3907 6.40699ZM25.5944 9.19469L25.3498 8.93776L25.5256 8.51785L25.8791 8.51532L25.9214 8.93358L25.5944 9.19469ZM30.2324 10.7307L30.8848 8.85439L31.388 8.32828C30.866 6.56739 29.7674 5.3388 28.436 5.26191C26.4456 5.14642 24.6814 7.63863 24.5002 10.8302C24.3152 14.0217 25.7801 16.7032 27.7704 16.8187C29.1178 16.8989 30.3629 15.7795 31.0823 14.057L30.4645 12.588L30.2324 10.7307Z" fill="#227354"/>
<path d="M23.8703 23.9336L26.3641 20.4883L26.838 18.1699L29.456 18.6017L28.2544 25.3209L23.8703 23.9336Z" fill="#227354"/>
<path d="M35.8895 22.098L34.2122 15.8218L29.8255 18.587L29.5608 20.5574L34.2306 17.9532L35.2283 22.4182L28.2393 25.8034L7.91728 19.4271L7.97362 18.5749L7.19117 17.7338L7.04083 19.0521V20.6584L28.465 28.8493L36.1152 24.2122L35.8895 22.098Z" fill="#227354"/>
<path d="M32.0154 19.4211V23.4216L34.157 22.3355L32.3667 22.5125L32.0154 19.4211Z" fill="#227354"/>
<path d="M29.5154 20.9382L28.8839 24.9868L30.2252 24.3402L29.4558 24.217L29.5154 20.9382Z" fill="#227354"/>
<path d="M33.51 15.7274L31.955 15.6362C31.955 15.6362 31.9079 16.0375 31.5353 16.7063L31.163 17.3754L33.51 15.7274Z" fill="#227354"/>
<path d="M23.3756 23.6793L25.4889 20.8342L19.1102 19.2544L15.6213 21.1937L23.3756 23.6793Z" fill="#227354"/>
<path d="M15.0498 20.9384L18.5028 19.0802L12.6652 17.8713L16.7844 19.2545L15.0498 20.9384Z" fill="#227354"/>
<path d="M22.2113 17.437C22.2113 17.437 22.3841 17.7953 22.9258 18.3694C23.4675 18.9436 24.6184 19.5119 24.6184 19.5119L11.202 16.7499C11.202 16.7499 12.2966 16.5934 12.9058 16.3079C13.5153 16.0227 14.1923 15.9509 14.1923 15.9509L22.2113 17.437Z" fill="#227354"/>
<path d="M21.0795 14.9375L20.7869 14.7322C20.7575 14.7116 20.7582 14.6612 20.7885 14.6417L21.0866 14.4454C21.1722 14.6 21.1608 14.7649 21.0795 14.9375ZM21.605 16.6221L21.8996 16.4851C21.9454 16.6526 21.9291 16.8023 21.8285 16.9271L21.5919 16.7036C21.5683 16.6811 21.5757 16.6358 21.605 16.6221ZM20.7333 11.3902L21.0812 11.1942C21.1502 11.3982 21.1426 11.5855 21.0299 11.7498L20.7242 11.4925C20.6935 11.4669 20.6987 11.4098 20.7333 11.3902ZM20.3302 16.7497L20.094 16.5262C20.0704 16.5037 20.0777 16.4584 20.107 16.4447L20.4015 16.3077C20.4471 16.4752 20.4311 16.6249 20.3302 16.7497ZM19.9436 8.26988L19.6379 8.01296C19.607 7.98694 19.6125 7.9302 19.6471 7.91066L19.9946 7.71437C20.0637 7.91865 20.0563 8.10596 19.9436 8.26988ZM19.6102 4.57379L19.8841 4.34383C19.9863 4.48751 19.9942 4.65308 19.9331 4.83363L19.6192 4.66388C19.5876 4.64659 19.5828 4.59685 19.6102 4.57379ZM19.4245 14.8393L19.1319 14.634C19.1026 14.6135 19.1033 14.5632 19.1335 14.5433L19.4316 14.3473C19.5172 14.5019 19.5058 14.6667 19.4245 14.8393ZM18.8949 11.302L19.2424 11.1057C19.3112 11.3097 19.3042 11.4973 19.1911 11.6615L18.8855 11.404C18.8548 11.3783 18.8599 11.3216 18.8949 11.302ZM17.6884 4.96322L17.3741 4.79356C17.3428 4.77656 17.3378 4.72644 17.3651 4.70333L17.6387 4.47342C17.7415 4.61705 17.7492 4.78224 17.6884 4.96322ZM17.1483 8.13579L16.8426 7.87858C16.812 7.85256 16.8171 7.79582 16.8521 7.77619L17.1992 7.5799C17.2683 7.78426 17.2613 7.97158 17.1483 8.13579ZM16.9082 14.6902L16.6155 14.4845C16.5865 14.4641 16.5874 14.4137 16.617 14.3941L16.9155 14.1978C17.0008 14.3524 16.9893 14.5176 16.9082 14.6902ZM16.3961 11.5271L16.0903 11.2697C16.0595 11.2439 16.0649 11.1872 16.0996 11.1676L16.4473 10.9713C16.5161 11.1756 16.5088 11.3629 16.3961 11.5271ZM15.6235 5.08247L15.3095 4.91282C15.2776 4.89553 15.2729 4.84584 15.3003 4.82273L15.5742 4.59267C15.6767 4.73645 15.6843 4.90164 15.6235 5.08247ZM14.6545 8.01587L14.3484 7.75852C14.3182 7.73293 14.3233 7.67619 14.3583 7.65627L14.7054 7.45994C14.7746 7.66426 14.7671 7.85167 14.6545 8.01587ZM14.6633 14.5567L14.371 14.3514C14.3414 14.3309 14.3423 14.2805 14.3723 14.261L14.6708 14.0643C14.756 14.2193 14.7442 14.3841 14.6633 14.5567ZM13.9023 11.4072L13.5965 11.15C13.5657 11.1242 13.5711 11.0675 13.6058 11.048L13.9532 10.8517C14.0223 11.0556 14.015 11.243 13.9023 11.4072ZM13.4641 4.92855L13.7376 4.69887C13.8405 4.84255 13.8481 5.00775 13.7873 5.18834L13.4731 5.01869C13.4418 5.00169 13.4364 4.95166 13.4641 4.92855ZM12.5985 14.4342L12.3062 14.2289C12.2769 14.2084 12.2775 14.158 12.3075 14.1385L12.6062 13.9418C12.6912 14.0967 12.68 14.2617 12.5985 14.4342ZM12.4896 15.8218L12.2533 15.5979C12.2297 15.5754 12.2371 15.5306 12.2667 15.5167L12.561 15.3795C12.6068 15.5472 12.5909 15.697 12.4896 15.8218ZM12.0549 7.64824C12.0244 7.62264 12.0298 7.56581 12.0645 7.54622L12.4119 7.34994C12.481 7.55397 12.4737 7.74129 12.361 7.90549L12.0549 7.64824ZM12.1453 5.00483L12.4196 4.77492C12.5221 4.91864 12.5295 5.08379 12.4689 5.26472L12.1547 5.09469C12.1231 5.07768 12.118 5.02766 12.1453 5.00483ZM11.6088 11.2968L11.303 11.0396C11.2722 11.0139 11.2776 10.9571 11.3124 10.9376L11.6597 10.7413C11.7289 10.9453 11.7216 11.133 11.6088 11.2968ZM10.9573 5.16397C10.9257 5.14696 10.9209 5.09694 10.9483 5.07388L11.2222 4.8442C11.3247 4.98755 11.3324 5.15307 11.2712 5.33362L10.9573 5.16397ZM10.7627 14.3251L10.4703 14.1198C10.4407 14.0993 10.4417 14.049 10.4713 14.0294L10.77 13.8331C10.8553 13.9877 10.8436 14.1526 10.7627 14.3251ZM10.3213 7.80766L10.0155 7.5504C9.98464 7.52443 9.99005 7.46769 10.0248 7.44815L10.3723 7.25182C10.4413 7.45613 10.4337 7.64345 10.3213 7.80766ZM10.213 15.5523L9.97672 15.3284C9.95317 15.306 9.96021 15.2608 9.98982 15.247L10.2843 15.1103C10.3296 15.2778 10.3136 15.4273 10.213 15.5523ZM9.56878 11.199L9.26339 10.9415C9.23251 10.9158 9.2376 10.859 9.27262 10.8395L9.62035 10.6432C9.68886 10.8475 9.68182 11.0348 9.56878 11.199ZM9.44432 14.2468L9.15193 14.0416C9.1227 14.0211 9.1233 13.9707 9.15319 13.9512L9.45164 13.7549C9.53693 13.9094 9.52583 14.0746 9.44432 14.2468ZM8.85675 7.73711L8.55099 7.47985C8.52049 7.45421 8.52552 7.39742 8.56031 7.37784L8.90763 7.18155C8.97678 7.38587 8.96974 7.57314 8.85675 7.73711ZM8.2469 14.1756L7.95456 13.9707C7.92523 13.9499 7.92588 13.8998 7.95587 13.8802L8.25455 13.6837C8.3396 13.8385 8.32841 14.0034 8.2469 14.1756ZM7.80809 10.7689L8.15578 10.5729C8.22456 10.7769 8.21729 10.9646 8.10453 11.1285L7.79886 10.8712C7.76789 10.8456 7.7733 10.7887 7.80809 10.7689ZM7.69659 12.7024L6.56865 12.6505C6.45529 12.645 6.39481 12.5215 6.45944 12.4278L7.10236 11.4931C7.54821 11.8024 7.77433 12.1947 7.69659 12.7024ZM5.99382 9.29241C5.90275 9.22478 5.92028 9.0881 6.02572 9.04639L7.07597 8.62916C7.27592 9.1353 7.24757 9.58785 6.90305 9.96671L5.99382 9.29241ZM7.23046 7.31368L7.57815 7.11772C7.6466 7.32175 7.63965 7.50907 7.52653 7.67328L7.22085 7.41602C7.19063 7.39042 7.19534 7.33331 7.23046 7.31368ZM7.04565 6.30749C6.98037 6.21449 7.03997 6.0903 7.153 6.0842L8.28066 6.02262C8.31125 6.56634 8.14244 6.98686 7.69696 7.23674L7.04565 6.30749ZM22.4498 4.68835L22.1355 4.5186C22.1043 4.50132 22.0992 4.45158 22.1266 4.42847L22.4002 4.19855C22.503 4.34218 22.5107 4.50742 22.4498 4.68835ZM21.5037 8.12423L21.4764 8.10117C21.4454 8.07515 21.4508 8.01869 21.4856 7.99887L21.5412 7.96778C21.9438 6.28377 22.6622 4.73734 23.7501 3.64553L22.2075 3.78827C22.1091 3.64074 21.9562 3.41167 21.877 3.29622C21.7792 3.15409 21.6795 3.63844 21.6429 3.84022L19.1475 4.07089C19.0491 3.92331 18.9049 3.70748 18.8288 3.59682C18.7338 3.45887 18.637 3.91049 18.5982 4.1219L16.8279 4.28544C16.7664 4.19244 16.6541 4.02368 16.5976 3.94186C16.5292 3.84247 16.4594 4.21429 16.4413 4.321L14.9153 4.46186C14.8818 4.41184 14.7971 4.28446 14.7567 4.22546C14.7054 4.15135 14.6531 4.48624 14.6531 4.48624L14.3596 4.51315C13.744 4.25562 13.0762 4.10771 12.3775 4.08587L12.6963 4.60103C12.238 4.89074 11.7909 4.94457 11.3588 4.67196L11.8289 3.69846L11.7922 3.63947C11.7324 3.54253 11.5957 3.5499 11.5461 3.65229L11.3018 4.15872C10.7681 4.24665 10.2611 4.41273 9.78697 4.64152L10.2019 4.91221C9.90919 5.37026 9.52709 5.61013 9.02076 5.54855L9.03666 4.41123C9.03699 4.39319 9.04431 4.3791 9.04972 4.3644L8.94717 4.29728C8.85223 4.23538 8.73155 4.30048 8.73001 4.41438L8.71756 5.30835C8.44494 5.52446 8.19243 5.76443 7.9609 6.02647L6.84672 6.08748C6.73331 6.09354 6.674 6.21768 6.739 6.31068L7.24342 7.03045C6.95053 7.54397 6.72916 8.10535 6.59314 8.70262L5.71934 9.04968C5.61395 9.09129 5.59637 9.2283 5.68717 9.2957L6.44256 9.85605C6.43939 9.93651 6.43109 10.0157 6.43109 10.0972C6.43109 10.3092 6.44573 10.5174 6.46704 10.7236C6.47152 10.7176 6.47152 10.7089 6.47823 10.7051L6.82569 10.5088C6.89471 10.7131 6.88743 10.9004 6.77468 11.0646L6.4766 10.8139C6.51326 11.1208 6.56991 11.421 6.64765 11.7122L6.15279 12.4314C6.08844 12.525 6.14892 12.6482 6.262 12.6537L6.99916 12.6877C7.28931 13.3196 7.67719 13.8931 8.15009 14.3797L7.89977 14.9214C7.8523 15.0247 7.93292 15.136 8.04503 15.1219L8.2587 15.095C8.2033 15.0591 8.17392 14.9881 8.20642 14.9178L8.68286 13.8869C9.17394 14.1154 9.46274 14.463 9.47202 14.977L8.92843 15.0456C9.42483 15.4038 9.97606 15.6851 10.5691 15.8676L10.7277 16.3885C10.7607 16.4977 10.8949 16.5262 10.9687 16.4399L11.0289 16.3693L10.7034 15.2976C11.2203 15.1366 11.6657 15.2008 12.0138 15.5764L11.5869 16.0733C11.7912 16.0983 11.9973 16.1172 12.2084 16.1172C12.8167 16.1172 13.3991 16.0097 13.9491 15.8266L13.9156 15.7948C13.8921 15.7724 13.8991 15.7272 13.9287 15.7133L14.2233 15.5764C14.2373 15.6277 14.243 15.6768 14.2446 15.7249C14.2472 15.724 14.2497 15.723 14.2523 15.7221L15.7745 15.9828C15.7732 15.9629 15.7789 15.9434 15.7974 15.9347L16.092 15.7977C16.1152 15.8837 16.1219 15.9648 16.1098 16.0402L17.9148 16.3494L17.8164 16.2564C17.7928 16.234 17.7998 16.1888 17.8295 16.1752L18.124 16.0383C18.158 16.1643 18.1574 16.2804 18.1122 16.3831L22.4861 17.1324C21.2098 15.196 20.7589 11.4171 21.5037 8.12423Z" fill="#227354"/>
</svg>
